<svg width="24" height="15" viewBox="0 0 24 15" fill="none" xmlns="http://www.w3.org/2000/svg">
    <path
        d="M8.10595 11.313C5.70961 11.313 4.81099 13.8655 2.41465 15C0.0183092 15 -1.77894 11.5966 3.01373 1.95359H3.31327L3.84047 1.01198C3.84047 1.01198 7.20732 -0.88259 8.80089 0.512809H15.1991C16.7927 -0.88259 20.1595 1.01198 20.1595 1.01198L20.6867 1.95359H20.9863C25.7789 11.5966 23.9817 15 21.5854 15C19.189 13.8655 18.2904 11.313 15.894 11.313H8.10595Z"
        fill="currentColor" />
    <path
        d="M8.49512 5.49512H10V6.49512H8.49512V8H7.49512V6.49512H6V5.49512H7.49512V4H8.49512V5.49512Z"
        fill="#F3F3FB" />
    <path
        d="M16.0175 6.72059C16.4058 6.72085 16.7206 7.03624 16.7206 7.42469C16.7204 7.81301 16.4057 8.12755 16.0175 8.12782C15.6289 8.12782 15.3135 7.81317 15.3134 7.42469C15.3134 7.03607 15.6288 6.72059 16.0175 6.72059ZM14.6093 5.31336C14.9979 5.31336 15.3134 5.62885 15.3134 6.01746C15.3132 6.40591 14.9977 6.72059 14.6093 6.72059C14.221 6.72037 13.9063 6.40577 13.9061 6.01746C13.9061 5.62899 14.2208 5.31358 14.6093 5.31336ZM17.4247 5.31336C17.8131 5.31358 18.1278 5.62899 18.1278 6.01746C18.1276 6.40577 17.813 6.72037 17.4247 6.72059C17.0362 6.72059 16.7208 6.40591 16.7206 6.01746C16.7206 5.62885 17.0361 5.31336 17.4247 5.31336ZM16.0175 3.90614C16.4058 3.9064 16.7206 4.22178 16.7206 4.61024C16.7203 4.99848 16.4057 5.3131 16.0175 5.31336C15.629 5.31336 15.3136 4.99865 15.3134 4.61024C15.3134 4.22162 15.6288 3.90614 16.0175 3.90614Z"
        fill="#F3F3FB" />
</svg>