<svg width="15" height="18" viewBox="0 0 15 18" fill="none" xmlns="http://www.w3.org/2000/svg">
    <path
        d="M5.92917 16.8631C6.43417 17.2683 6.96083 17.6386 7.5 18C8.04033 17.6434 8.56444 17.2641 9.07083 16.8631C9.915 16.1892 10.7095 15.4584 11.4483 14.6761C13.1517 12.8651 15 10.2398 15 7.2927C15 6.33501 14.806 5.38669 14.4291 4.5019C14.0522 3.61711 13.4997 2.81317 12.8033 2.13598C12.1069 1.45879 11.2801 0.921616 10.3701 0.555124C9.46018 0.188631 8.48491 0 7.5 0C6.51509 0 5.53982 0.188631 4.62987 0.555124C3.71993 0.921616 2.89314 1.45879 2.1967 2.13598C1.50026 2.81317 0.947814 3.61711 0.570903 4.5019C0.193993 5.38669 -1.46764e-08 6.33501 0 7.2927C0 10.2398 1.84833 12.8643 3.55167 14.6761C4.29052 15.4586 5.08497 16.1889 5.92917 16.8631ZM7.5 9.92617C6.78171 9.92617 6.09283 9.64872 5.58492 9.15485C5.07701 8.66097 4.79167 7.99114 4.79167 7.2927C4.79167 6.59426 5.07701 5.92442 5.58492 5.43055C6.09283 4.93668 6.78171 4.65922 7.5 4.65922C8.21829 4.65922 8.90717 4.93668 9.41508 5.43055C9.92299 5.92442 10.2083 6.59426 10.2083 7.2927C10.2083 7.99114 9.92299 8.66097 9.41508 9.15485C8.90717 9.64872 8.21829 9.92617 7.5 9.92617Z"
        fill="currentColor" />
</svg>