<svg width="18" height="18" viewBox="0 0 18 18" fill="none" xmlns="http://www.w3.org/2000/svg">
    <path fill-rule="evenodd" clip-rule="evenodd"
        d="M3.04728 0.9375H5.86053C5.97494 0.9375 6.08663 0.972391 6.18071 1.03752C6.27478 1.10264 6.34675 1.19491 6.38702 1.302L7.47903 4.2045C7.51502 4.30049 7.52409 4.40448 7.50528 4.50525L6.95778 7.43925C7.63053 9.02025 8.74127 10.083 10.5825 11.0363L13.4813 10.4738C13.5843 10.4539 13.6908 10.4633 13.7888 10.5008L16.7003 11.6108C16.8067 11.6513 16.8983 11.7232 16.963 11.8169C17.0277 11.9107 17.0624 12.0219 17.0625 12.1357V14.8237C17.0625 16.0432 15.9885 17.0325 14.7315 16.7587C12.4418 16.2607 8.19902 14.994 5.22752 12.0225C2.38052 9.17625 1.42652 5.24475 1.10628 3.12C0.922525 1.9065 1.89528 0.9375 3.04728 0.9375Z"
        fill="currentColor" />
</svg>