<svg width="30" height="30" viewBox="0 0 30 30" fill="none" xmlns="http://www.w3.org/2000/svg">
    <path d="M15.75 7.5V15.375L22.5 19.38L21.375 21.225L13.5 16.5V7.5H15.75Z" fill="currentColor" />
    <path
        d="M15 1.5C16.7727 1.5 18.5282 1.84898 20.166 2.52734C21.8039 3.20578 23.2923 4.20051 24.5459 5.4541C25.7995 6.70769 26.7942 8.19609 27.4727 9.83398C28.151 11.4718 28.5 13.2273 28.5 15C28.5 18.5804 27.0776 22.0142 24.5459 24.5459C22.0142 27.0776 18.5804 28.5 15 28.5C7.53635 28.5 1.5 22.4245 1.5 15C1.5 11.4196 2.92236 7.98584 5.4541 5.4541C7.98584 2.92236 11.4196 1.5 15 1.5Z"
        stroke="currentColor" stroke-width="3" />
</svg>