<svg width="40" height="40" viewBox="0 0 40 40" fill="none" xmlns="http://www.w3.org/2000/svg">
  <mask id="mask0_1_676" style="mask-type:luminance" maskUnits="userSpaceOnUse" x="0" y="0" width="40" height="40">
    <path fill-rule="evenodd" clip-rule="evenodd" d="M9.94122 0.0181811L11.6526 0L29.454 0.00727336C29.7243 0.0096976 29.8927 0.0133326 30.06 0.0181811C30.9424 0.0412114 31.8332 0.0921211 32.7059 0.248485C33.5801 0.395985 34.4276 0.672111 35.2209 1.06788C36.0112 1.46546 36.736 1.98424 37.3626 2.60606C37.9895 3.22492 38.5144 3.93924 38.9176 4.72242C39.3297 5.51879 39.5879 6.33455 39.7467 7.2097C39.9043 8.07273 39.9564 8.95273 39.9794 9.82546C39.9915 10.2255 39.9964 10.6255 39.9976 11.0267L40 11.7406V27.543C40 28.0182 40 28.4945 39.9976 28.9709C39.9952 29.3709 39.9915 29.7709 39.9794 30.1709C39.9552 31.0436 39.9043 31.9248 39.7467 32.7867C39.5971 33.6528 39.3176 34.4913 38.9176 35.2739C38.5141 36.0574 37.9893 36.772 37.3626 37.3915C36.7335 38.0131 36.0108 38.5322 35.2209 38.9297C34.4276 39.3255 33.5801 39.6017 32.7059 39.7491C31.8332 39.9042 30.9424 39.9552 30.06 39.9794L27.4008 40L10.546 39.9903C10.3444 39.9881 10.1428 39.9841 9.94122 39.9782C9.05884 39.9564 8.16799 39.9042 7.29531 39.7491C6.42153 39.6016 5.57441 39.3254 4.78153 38.9297C3.19441 38.1309 1.89987 36.8516 1.08236 35.2739C0.682963 34.4911 0.403495 33.6526 0.253318 32.7867C0.0957513 31.9248 0.0448453 31.0436 0.0218164 30.1721C0.00969596 29.7721 0.00606055 29.3709 0.00363646 28.9709L0 28.2545V12.4545C0 11.9794 3.14373e-07 11.503 0.00363646 11.0279C0.00606055 10.6279 0.010908 10.2279 0.0218164 9.82667C0.0460574 8.95394 0.0969634 8.07394 0.253318 7.21091C0.403405 6.34494 0.682878 5.50647 1.08236 4.72364C1.89868 3.14555 3.19302 1.86599 4.78032 1.06788C5.57361 0.672095 6.42113 0.395968 7.29531 0.248485C8.16799 0.0933332 9.05884 0.0424235 9.94122 0.0181811Z" fill="white" />
  </mask>
  <g mask="url(#mask0_1_676)">
    <path d="M0 -0.00244141H39.9401V39.9401H0V-0.00244141Z" fill="#19AA1E" />
    <path fill-rule="evenodd" clip-rule="evenodd" d="M0 -0.00244141H39.9401V13.1024L0 6.86221V-0.00244141Z" fill="#FFB919" />
    <path fill-rule="evenodd" clip-rule="evenodd" d="M0 35.5697L39.9401 29.3296V39.9388H0V35.5697Z" fill="#82D714" />
    <path fill-rule="evenodd" clip-rule="evenodd" d="M0 6.073L13.9415 8.25148C15.6769 7.15256 17.7415 6.54985 19.9694 6.54985C23.0554 6.54985 25.8292 7.70565 27.8478 9.73406C28.102 9.99064 28.3416 10.2581 28.5679 10.5365L39.9401 12.3131V13.8925L29.7224 12.295C30.4871 13.757 30.8878 15.382 30.8903 17.032C30.8903 19.1717 30.4122 21.3054 29.4223 23.4476L29.3932 23.513L28.9721 24.4134H27.9797C25.9272 24.4134 24.567 25.027 23.6763 26.1151C22.978 26.9683 22.5738 28.1205 22.4382 29.3767L22.4334 29.4155L22.414 29.6164L22.4056 29.7035L22.3886 29.8742C22.3366 30.4357 22.3027 30.9114 22.2845 31.2986L39.9401 28.5392V30.1186L0 36.36V34.7806L17.6749 32.0188L17.6676 31.6641L17.6652 31.5649L17.6628 31.5129L17.6604 31.4342C17.6447 31.0045 17.6047 30.4539 17.5418 29.7858L17.5297 29.6587L17.5079 29.4397C17.382 28.1761 16.9839 27.0107 16.2856 26.1441C15.4058 25.0488 14.0588 24.4255 12.0221 24.4134H10.9668L10.5469 23.513C9.53755 21.349 9.04863 19.1935 9.04863 17.032C9.04863 14.3137 10.1511 11.685 12.0923 9.73406L12.2617 9.56826L0 7.65119V6.073Z" fill="white" />
    <path fill-rule="evenodd" clip-rule="evenodd" d="M19.9694 8.11011C25.546 8.11011 29.3303 12.4017 29.3303 17.0322C29.3303 18.8912 28.9249 20.8252 27.9785 22.8536C22.4927 22.8536 21.1385 26.7821 20.8819 29.2559L20.865 29.4193C20.7791 30.3028 20.7282 31.0108 20.7149 31.5433L19.2288 31.7757V31.7273C19.2081 30.9408 19.1548 30.1554 19.0691 29.3733L19.0654 29.3298C18.8282 26.862 17.5031 22.8536 11.9616 22.8536C11.014 20.8252 10.6086 18.8912 10.6086 17.0322C10.6086 12.4017 14.3941 8.11011 19.9694 8.11011Z" fill="#0073FA" />
  </g>
</svg>