<svg width="30" height="30" viewBox="0 0 30 30" fill="none" xmlns="http://www.w3.org/2000/svg">
    <path
        d="M11.8066 1.5L11.8457 1.50195H17.9951C18.0069 1.50198 18.0156 1.50631 18.0205 1.50977H18.0234L18.9521 4.24902L18.9541 4.25293C19.194 4.95225 19.6837 5.53498 20.3232 5.89551C20.962 6.2555 21.7097 6.37202 22.4268 6.22656L22.4258 6.22559L25.291 5.6582L25.2988 5.65625C25.31 5.65398 25.3217 5.65549 25.3301 5.65918C25.3379 5.66267 25.3396 5.6663 25.3389 5.66504L25.3398 5.66699L28.3877 10.8467L26.4365 13.0039L26.4307 13.0098C25.9421 13.5561 25.6689 14.2635 25.6689 15C25.6689 15.7365 25.9421 16.4439 26.4307 16.9902L26.4639 17.0254L28.4941 19.1523L25.4473 24.333L25.4453 24.335C25.4444 24.3359 25.4419 24.3385 25.4365 24.3408C25.4282 24.3445 25.4173 24.3459 25.4062 24.3438L25.3984 24.3418L22.5332 23.7734H22.5342C21.8169 23.6279 21.0686 23.7443 20.4297 24.1045C19.7902 24.465 19.3004 25.0478 19.0605 25.7471L19.0596 25.751L18.1299 28.4902C18.1313 28.4863 18.1321 28.4872 18.1279 28.4902C18.123 28.4937 18.1135 28.4981 18.1016 28.498H11.9521L11.9141 28.5C11.9016 28.5006 11.8914 28.4969 11.8857 28.4932C11.8807 28.4898 11.8814 28.4882 11.8828 28.4922L10.9531 25.751L10.9512 25.7471L10.8496 25.4902C10.5864 24.9055 10.1416 24.4199 9.58203 24.1045C9.02297 23.7894 8.38041 23.6611 7.74805 23.7314L7.47852 23.7734L4.61426 24.3418L4.60645 24.3438C4.5953 24.346 4.58356 24.3445 4.5752 24.3408C4.56764 24.3374 4.56576 24.3339 4.56641 24.335L4.56543 24.333L1.51172 19.1436L1.50488 19.1318L3.42676 16.9922L3.42871 16.9902C3.91729 16.4439 4.19043 15.7365 4.19043 15C4.19043 14.2635 3.91729 13.5561 3.42871 13.0098L3.42676 13.0078L1.50488 10.8672L1.51172 10.8564L4.55664 5.68164C4.55599 5.68272 4.55744 5.67912 4.56445 5.67578C4.56993 5.6732 4.57732 5.67297 4.58496 5.67285L7.46094 6.22852C8.17413 6.37004 8.91679 6.25342 9.55176 5.89551C10.1913 5.53498 10.681 4.95225 10.9209 4.25293L10.9277 4.2334L10.9346 4.21289L11.7764 1.50781C11.7749 1.51197 11.7741 1.51027 11.7793 1.50684C11.7849 1.50318 11.7946 1.49946 11.8066 1.5Z"
        stroke="currentColor" stroke-width="3" />
    <circle cx="15" cy="15" r="4.5" stroke="currentColor" stroke-width="3" />
</svg>