<svg width="13" height="12" viewBox="0 0 13 12" fill="none" xmlns="http://www.w3.org/2000/svg">
    <path
        d="M5.7488 0.485868C6.02432 -0.161956 6.97568 -0.161956 7.2512 0.485868L8.43819 3.27683C8.55482 3.55106 8.82202 3.73827 9.12851 3.7605L12.2478 3.9867C12.9718 4.03921 13.2658 4.91174 12.7121 5.36463L10.3264 7.31574C10.092 7.50745 9.98991 7.81036 10.0627 8.09833L10.8035 11.0291C10.9755 11.7094 10.2058 12.2486 9.58807 11.8807L6.92664 10.2956C6.66514 10.1398 6.33486 10.1398 6.07336 10.2956L3.41194 11.8807C2.79418 12.2486 2.02452 11.7094 2.19647 11.0291L2.9373 8.09833C3.01009 7.81036 2.90803 7.50745 2.67363 7.31574L0.287946 5.36463C-0.265805 4.91174 0.0281792 4.03921 0.75221 3.9867L3.87149 3.7605C4.17798 3.73827 4.44518 3.55106 4.56181 3.27683L5.7488 0.485868Z"
        fill="currentColor" />
</svg>