<svg width="24" height="24" viewBox="0 0 24 24" fill="none" xmlns="http://www.w3.org/2000/svg">
  <g clip-path="url(#clip0_1_161)">
    <path fill-rule="evenodd" clip-rule="evenodd" d="M17.7767 4.43C18.0238 4.32599 18.2943 4.29012 18.5599 4.32612C18.8256 4.36211 19.0768 4.46867 19.2873 4.63468C19.4979 4.8007 19.6601 5.02011 19.757 5.27008C19.854 5.52005 19.8822 5.79144 19.8387 6.056L17.5707 19.813C17.3507 21.14 15.8947 21.901 14.6777 21.24C13.6597 20.687 12.1477 19.835 10.7877 18.946C10.1077 18.501 8.02465 17.076 8.28065 16.062C8.50065 15.195 12.0007 11.937 14.0007 10C14.7857 9.239 14.4277 8.8 13.5007 9.5C11.1987 11.238 7.50265 13.881 6.28065 14.625C5.20265 15.281 4.64065 15.393 3.96865 15.281C2.74265 15.077 1.60565 14.761 0.677653 14.376C-0.576346 13.856 -0.515346 12.132 0.676654 11.63L17.7767 4.43Z" fill="currentColor" />
  </g>
  <defs>
    <clipPath id="clip0_1_161">
      <rect width="24" height="24" fill="white" />
    </clipPath>
  </defs>
</svg>