<svg width="40" height="40" viewBox="0 0 40 40" fill="none" xmlns="http://www.w3.org/2000/svg">
  <path d="M20 0C31.0446 0 40 8.95539 40 20C40 31.0446 31.0446 40 20 40C8.95539 40 0 31.0446 0 20C0 8.95539 8.95539 0 20 0Z" fill="#FC3F1D" />
  <path d="M22.7764 31.499H26.9548V7.50343H20.8756C14.7631 7.49788 11.5489 10.64 11.5489 15.2673C11.5489 18.9637 13.3112 21.136 16.4533 23.3804L11.0003 31.4934H15.5223L21.596 22.4106L19.4902 20.9975C16.9354 19.274 15.6941 17.9274 15.6941 15.0235C15.6941 12.4688 17.4896 10.7398 20.9088 10.7398H22.7708L22.7764 31.499Z" fill="white" />
</svg>