<svg xmlns="http://www.w3.org/2000/svg" xmlns:xlink="http://www.w3.org/1999/xlink"><symbol fill="none" viewBox="0 0 24 24" id="call" xmlns="http://www.w3.org/2000/svg"><path d="M12.001 2c5.523 0 10 4.477 10 10s-4.477 10-10 10a9.95 9.95 0 0 1-5.03-1.355L2.005 22l1.352-4.968A9.95 9.95 0 0 1 2.001 12c0-5.523 4.477-10 10-10ZM8.593 7.3l-.2.008a1 1 0 0 0-.372.1 1.3 1.3 0 0 0-.294.228c-.12.113-.188.211-.261.306A2.73 2.73 0 0 0 6.9 9.62c.002.49.13.967.33 1.413.409.902 1.082 1.857 1.97 2.742.214.213.424.427.65.626a9.45 9.45 0 0 0 3.84 2.046l.568.087c.185.01.37-.004.556-.013a2 2 0 0 0 .833-.231c.13-.068.259-.141.383-.22 0 0 .042-.029.125-.09.135-.1.218-.171.33-.288.084-.087.154-.187.21-.302.078-.163.156-.474.188-.733.024-.198.017-.306.014-.373-.004-.107-.093-.218-.19-.265l-.582-.261s-.87-.379-1.402-.621a.502.502 0 0 0-.176-.041.48.48 0 0 0-.378.127c-.005-.002-.072.055-.795.931a.35.35 0 0 1-.368.13 1.4 1.4 0 0 1-.191-.066c-.124-.052-.167-.072-.252-.108a6 6 0 0 1-1.575-1.003c-.126-.11-.243-.23-.363-.346a6.3 6.3 0 0 1-1.02-1.268l-.059-.095a1 1 0 0 1-.102-.205c-.038-.147.061-.265.061-.265s.243-.266.356-.41c.11-.14.203-.276.263-.373.118-.19.155-.385.093-.536-.28-.684-.57-1.364-.868-2.041-.059-.134-.234-.23-.393-.249a3.001 3.001 0 0 0-.565-.012l.202-.007Z" fill="currentColor"/></symbol><symbol fill="none" viewBox="0 0 30 30" id="clock" xmlns="http://www.w3.org/2000/svg"><path d="M15.75 7.5v7.875l6.75 4.005-1.125 1.845L13.5 16.5v-9h2.25Z" fill="currentColor"/><path d="M15 1.5a13.5 13.5 0 1 1 0 27C7.536 28.5 1.5 22.424 1.5 15A13.5 13.5 0 0 1 15 1.5Z" stroke="currentColor" stroke-width="3"/></symbol><symbol fill="none" viewBox="0 0 24 30" id="garantee" xmlns="http://www.w3.org/2000/svg"><path d="M22.5 5.54v8.11c0 3.48-1.028 6.628-3.106 9.488-1.99 2.738-4.448 4.48-7.394 5.306-2.945-.827-5.403-2.57-7.394-5.308C2.527 20.276 1.5 17.128 1.5 13.65V5.54L12 1.601l10.5 3.937Z" stroke="currentColor" stroke-width="3"/></symbol><symbol fill="none" viewBox="0 0 40 40" id="gis" xmlns="http://www.w3.org/2000/svg"><mask id="a" style="mask-type:luminance" maskUnits="userSpaceOnUse" x="0" y="0" width="40" height="40"><path fill-rule="evenodd" clip-rule="evenodd" d="M9.941.018 11.653 0l17.801.007c.27.003.439.006.606.011.882.023 1.773.074 2.646.23a8.98 8.98 0 0 1 2.515.82 8.4 8.4 0 0 1 3.697 3.654 8.69 8.69 0 0 1 .829 2.488c.157.863.21 1.743.232 2.615.013.4.017.8.019 1.202l.002.714v15.802c0 .475 0 .951-.002 1.428-.003.4-.006.8-.019 1.2-.024.873-.075 1.754-.232 2.616a8.73 8.73 0 0 1-.83 2.487 8.359 8.359 0 0 1-1.554 2.117 8.454 8.454 0 0 1-2.142 1.539 8.976 8.976 0 0 1-2.515.82c-.873.154-1.764.205-2.646.23L27.4 40l-16.854-.01a32.968 32.968 0 0 1-.605-.012c-.882-.022-1.773-.074-2.646-.229a8.975 8.975 0 0 1-2.513-.82 8.44 8.44 0 0 1-3.7-3.655 8.77 8.77 0 0 1-.829-2.487c-.157-.862-.208-1.743-.231-2.615-.012-.4-.016-.801-.018-1.201L0 28.255v-15.8c0-.476 0-.952.004-1.427.002-.4.007-.8.018-1.201.024-.873.075-1.753.231-2.616.15-.866.43-1.705.83-2.487A8.424 8.424 0 0 1 4.78 1.068a8.98 8.98 0 0 1 2.515-.82C8.168.093 9.06.042 9.941.018Z" fill="#fff"/></mask><g mask="url(#a)"><path d="M0-.002h39.94V39.94H0V-.002Z" fill="#19AA1E"/><path fill-rule="evenodd" clip-rule="evenodd" d="M0-.002h39.94v13.104L0 6.862V-.002Z" fill="#FFB919"/><path fill-rule="evenodd" clip-rule="evenodd" d="m0 35.57 39.94-6.24v10.609H0v-4.37Z" fill="#82D714"/><path fill-rule="evenodd" clip-rule="evenodd" d="m0 6.073 13.941 2.178c1.736-1.098 3.8-1.701 6.028-1.701 3.086 0 5.86 1.156 7.879 3.184.254.257.494.524.72.803l11.372 1.776v1.58l-10.218-1.598a10.254 10.254 0 0 1 1.168 4.737c0 2.14-.478 4.273-1.468 6.416l-.029.065-.42.9h-.993c-2.053 0-3.413.614-4.304 1.702-.698.853-1.102 2.006-1.238 3.262l-.005.039-.019.2-.008.087-.017.171a32.095 32.095 0 0 0-.104 1.425l17.655-2.76v1.58L0 36.36v-1.58l17.675-2.761-.007-.355-.003-.1-.002-.051-.003-.079a30.02 30.02 0 0 0-.118-1.648l-.012-.127-.022-.22c-.126-1.263-.524-2.428-1.222-3.295-.88-1.095-2.227-1.718-4.264-1.73h-1.055l-.42-.901c-1.01-2.164-1.498-4.32-1.498-6.481 0-2.718 1.102-5.347 3.043-7.298l.17-.166L0 7.651V6.073Z" fill="#fff"/><path fill-rule="evenodd" clip-rule="evenodd" d="M19.97 8.11c5.576 0 9.36 4.292 9.36 8.922 0 1.86-.405 3.793-1.351 5.822-5.486 0-6.84 3.928-7.097 6.402l-.017.163a31.212 31.212 0 0 0-.15 2.124l-1.486.233v-.049a28.495 28.495 0 0 0-.16-2.354l-.004-.043c-.237-2.468-1.562-6.476-7.103-6.476-.948-2.029-1.353-3.963-1.353-5.822 0-4.63 3.785-8.922 9.36-8.922Z" fill="#0073FA"/></g></symbol><symbol fill="none" viewBox="0 0 24 15" id="joystick" xmlns="http://www.w3.org/2000/svg"><path d="M8.106 11.313c-2.396 0-3.295 2.553-5.691 3.687-2.397 0-4.194-3.403.599-13.046h.3l.526-.942S7.207-.883 8.8.512h6.4c1.593-1.395 4.96.5 4.96.5l.527.942h.3C25.778 11.597 23.981 15 21.584 15c-2.396-1.134-3.295-3.687-5.691-3.687H8.106Z" fill="currentColor"/><path d="M8.495 5.495H10v1H8.495V8h-1V6.495H6v-1h1.495V4h1v1.495ZM16.017 6.72a.704.704 0 1 1-.001 1.409.704.704 0 0 1 .002-1.408ZM14.61 5.314a.704.704 0 1 1 0 1.41.704.704 0 0 1 0-1.41Zm2.816 0a.704.704 0 1 1-.002 1.408.704.704 0 0 1 .002-1.408Zm-1.408-1.407a.704.704 0 1 1-.001 1.408.704.704 0 0 1 .002-1.408Z" fill="#F3F3FB"/></symbol><symbol fill="none" viewBox="0 0 10 16" id="left" xmlns="http://www.w3.org/2000/svg"><path d="m8.414.707-7 7 7 7" stroke="currentColor" stroke-width="2"/></symbol><symbol fill="none" viewBox="0 0 15 18" id="location" xmlns="http://www.w3.org/2000/svg"><path d="M5.93 16.863c.504.405 1.03.776 1.57 1.137.54-.357 1.064-.736 1.57-1.137a23.047 23.047 0 0 0 2.378-2.187C13.152 12.866 15 10.24 15 7.293c0-.958-.194-1.906-.57-2.791a7.283 7.283 0 0 0-1.627-2.366A7.517 7.517 0 0 0 10.37.556a7.685 7.685 0 0 0-5.74 0 7.518 7.518 0 0 0-2.433 1.58A7.283 7.283 0 0 0 .57 4.502 7.118 7.118 0 0 0 0 7.292c0 2.948 1.848 5.572 3.552 7.384a23.06 23.06 0 0 0 2.377 2.187ZM7.5 9.926a2.748 2.748 0 0 1-1.915-.771 2.597 2.597 0 0 1-.793-1.862c0-.699.285-1.369.793-1.862A2.748 2.748 0 0 1 7.5 4.659c.718 0 1.407.278 1.915.772.508.493.793 1.163.793 1.862 0 .698-.285 1.368-.793 1.862a2.748 2.748 0 0 1-1.915.771Z" fill="currentColor"/></symbol><symbol fill="none" viewBox="0 0 22 19" id="monoblok" xmlns="http://www.w3.org/2000/svg"><path d="M20 0a2 2 0 0 1 2 2v11a2 2 0 0 1-2 2h-7v2h3a1 1 0 1 1 0 2H6a1 1 0 1 1 0-2h3v-2H2a2 2 0 0 1-2-2V2a2 2 0 0 1 2-2h18Z" fill="currentColor"/></symbol><symbol fill="none" viewBox="0 0 24 17" id="notebook" xmlns="http://www.w3.org/2000/svg"><path d="M23 15a1 1 0 1 1 0 2H1a1 1 0 1 1 0-2h22ZM20 0a2 2 0 0 1 2 2v9a2 2 0 0 1-2 2H4a2 2 0 0 1-2-2V2a2 2 0 0 1 2-2h16Z" fill="currentColor"/></symbol><symbol fill="none" viewBox="0 0 30 30" id="payment" xmlns="http://www.w3.org/2000/svg"><rect x="1.5" y="5.5" width="27" height="19" rx="1.5" stroke="currentColor" stroke-width="3"/><path fill="currentColor" d="M3 10h24v5H3z"/></symbol><symbol fill="none" viewBox="0 0 18 18" id="phone" xmlns="http://www.w3.org/2000/svg"><path fill-rule="evenodd" clip-rule="evenodd" d="M3.047.938h2.814a.563.563 0 0 1 .526.364l1.092 2.903c.036.095.045.2.026.3L6.958 7.44c.673 1.581 1.783 2.644 3.624 3.597l2.9-.562c.102-.02.209-.01.307.027l2.911 1.11a.562.562 0 0 1 .363.525v2.688c0 1.22-1.074 2.208-2.331 1.935-2.29-.498-6.533-1.765-9.504-4.736C2.38 9.176 1.427 5.245 1.106 3.12.923 1.906 1.896.937 3.047.937Z" fill="currentColor"/></symbol><symbol fill="none" viewBox="0 0 10 16" id="right" xmlns="http://www.w3.org/2000/svg"><path d="m.707.707 7 7-7 7" stroke="currentColor" stroke-width="2"/></symbol><symbol fill="none" viewBox="0 0 30 30" id="roller" xmlns="http://www.w3.org/2000/svg"><path d="m11.807 1.5.039.002h6.15c.01 0 .02.004.024.008h.003l.93 2.739.001.004c.24.7.73 1.282 1.37 1.643.638.36 1.386.476 2.103.33h-.001l2.865-.568.008-.002a.054.054 0 0 1 .031.003c.008.004.01.007.009.006v.002l3.049 5.18-1.952 2.157-.005.006a2.985 2.985 0 0 0 0 3.98l.033.035 2.03 2.127-3.047 5.181-.002.002-.009.006a.052.052 0 0 1-.03.003l-.008-.002-2.865-.569h.001a3.052 3.052 0 0 0-2.104.332c-.64.36-1.13.943-1.37 1.642v.004l-.93 2.74c.001-.005.002-.004-.002 0a.046.046 0 0 1-.026.007h-6.15l-.038.002a.05.05 0 0 1-.028-.007c-.005-.003-.005-.005-.003 0l-.93-2.742-.002-.004-.101-.257a3.01 3.01 0 0 0-1.268-1.385 3.05 3.05 0 0 0-1.834-.374l-.27.042-2.864.569-.008.002a.055.055 0 0 1-.03-.003l-.01-.006v-.002l-3.054-5.19-.007-.011 1.922-2.14.002-.002a2.985 2.985 0 0 0 0-3.98l-.002-.002-1.922-2.14.007-.012 3.045-5.174c-.001 0 0-.003.007-.006a.053.053 0 0 1 .021-.003l2.876.556a3.05 3.05 0 0 0 2.09-.333c.64-.361 1.13-.944 1.37-1.643l.007-.02.007-.02.841-2.705c-.001.004-.002.002.003-.001a.047.047 0 0 1 .028-.007Z" stroke="currentColor" stroke-width="3"/><circle cx="15" cy="15" r="4.5" stroke="currentColor" stroke-width="3"/></symbol><symbol fill="none" viewBox="0 0 24 24" id="smartphone" xmlns="http://www.w3.org/2000/svg"><rect x="4" width="16" height="24" rx="3" fill="currentColor"/><path fill="#F3F3FB" d="M9 2h6v1H9z"/></symbol><symbol fill="none" viewBox="0 0 13 12" id="star" xmlns="http://www.w3.org/2000/svg"><path d="M5.749.486c.275-.648 1.227-.648 1.502 0l1.187 2.79a.81.81 0 0 0 .69.485l3.12.226c.724.052 1.018.925.464 1.378l-2.386 1.95a.767.767 0 0 0-.263.783l.74 2.931c.172.68-.597 1.22-1.215.852l-2.661-1.585a.837.837 0 0 0-.854 0L3.412 11.88c-.618.368-1.387-.172-1.216-.852l.741-2.93a.767.767 0 0 0-.263-.783L.288 5.365c-.554-.453-.26-1.326.464-1.378l3.12-.227a.81.81 0 0 0 .69-.483L5.749.486Z" fill="currentColor"/></symbol><symbol fill="none" viewBox="0 0 24 17" id="tablet" xmlns="http://www.w3.org/2000/svg"><path d="M22 0a2 2 0 0 1 2 2v13a2 2 0 0 1-2 2H2a2 2 0 0 1-2-2V2a2 2 0 0 1 2-2h20Z" fill="currentColor"/></symbol><symbol fill="none" viewBox="0 0 24 24" id="telegram" xmlns="http://www.w3.org/2000/svg"><g clip-path="url(#a)"><path fill-rule="evenodd" clip-rule="evenodd" d="M17.777 4.43a1.5 1.5 0 0 1 2.062 1.626L17.57 19.813c-.22 1.327-1.676 2.088-2.893 1.427-1.018-.553-2.53-1.405-3.89-2.294-.68-.445-2.763-1.87-2.507-2.884C8.5 15.195 12 11.937 14 10c.785-.761.427-1.2-.5-.5-2.302 1.738-5.998 4.381-7.22 5.125-1.078.656-1.64.768-2.312.656-1.226-.204-2.363-.52-3.291-.905-1.254-.52-1.193-2.244-.001-2.746l17.1-7.2Z" fill="currentColor"/></g><defs><clipPath id="a"><path fill="#fff" d="M0 0h24v24H0z"/></clipPath></defs></symbol><symbol fill="none" viewBox="0 0 40 40" id="yandex" xmlns="http://www.w3.org/2000/svg"><path d="M20 0c11.045 0 20 8.955 20 20s-8.955 20-20 20S0 31.045 0 20 8.955 0 20 0Z" fill="#FC3F1D"/><path d="M22.776 31.499h4.179V7.503h-6.08c-6.112-.005-9.326 3.137-9.326 7.764 0 3.697 1.762 5.869 4.904 8.113L11 31.493h4.522l6.074-9.082-2.106-1.414c-2.555-1.723-3.796-3.07-3.796-5.973 0-2.555 1.796-4.284 5.215-4.284h1.862l.005 20.759Z" fill="#fff"/></symbol></svg>